# xmcd
#
# Track frame offsets:
#	150
#	17906
#	35390
#	55189
#	72347
#	89104
#	106689
#	125364
#	145817
#
# Disc length: 2198 seconds
#
# Revision: 0
# Processed by: cddbd v1.5.2PL0 Copyright (c) Steve Scherf et al.
# Submitted via: EasyCDDAExtractor 16.0.8.1
#
DISCID=79089409
DTITLE=Grupo Diamante - La Clave Para Conquistarte
DYEAR=2001
DGENRE=Merengue
TTITLE0=La Clave Para Conquistarte
TTITLE1=Cintura
TTITLE2=Mas Lindo
TTITLE3=Sigan Bailando
TTITLE4=Dejame Amanecer
TTITLE5=Brindame
TTITLE6=Enamorao
TTITLE7=Cintura (Remix)
TTITLE8=Dile Bachata
EXTD=
EXTT0=
EXTT1=
EXTT2=
EXTT3=
EXTT4=
EXTT5=
EXTT6=
EXTT7=
EXTT8=
PLAYORDER=
